<svg xmlns="http://www.w3.org/2000/svg" xmlns:xlink="http://www.w3.org/1999/xlink" width="3900" height="4800" viewBox="0 0 3900 4800"><defs>
<filter id="grungeF" x="0" y="0" width="1" height="1" color-interpolation-filters="sRGB">
  <feTurbulence type="fractalNoise" baseFrequency="0.025" numOctaves="4" seed="9" result="n"/>
  <feColorMatrix in="n" type="matrix" values="0.33 0.33 0.33 0 0  0.33 0.33 0.33 0 0  0.33 0.33 0.33 0 0  0 0 0 0 1" result="g"/>
  <feComponentTransfer in="g" result="t">
    <feFuncR type="linear" slope="14" intercept="-4.1"/>
    <feFuncG type="linear" slope="14" intercept="-4.1"/>
    <feFuncB type="linear" slope="14" intercept="-4.1"/>
  </feComponentTransfer>
</filter>
<mask id="grunge" maskUnits="userSpaceOnUse" x="0" y="0" width="3900" height="4800"><rect width="3900" height="4800" fill="#fff" filter="url(#grungeF)"/></mask></defs><g mask="url(#grunge)"><g transform="rotate(-2.5 1950.0 2400.0)"><rect x="450.0" y="250.0" width="3000" height="4300" rx="40" fill="none" stroke="#FFFFFF" stroke-width="22"/><circle cx="1950.0" cy="400.0" r="60" fill="none" stroke="#FFFFFF" stroke-width="22"/><g transform="translate(1950.00,750.00)" fill="#FFFFFF" ><path transform="translate(-897.59,0) scale(0.126953,-0.126953)" d="M496 -16Q255 -16 148.5 104.0Q42 224 42 486V658H390V438Q390 377 408.5 342.5Q427 308 473 308Q521 308 539.5 336.0Q558 364 558 428Q558 509 542.0 563.5Q526 618 486.5 667.5Q447 717 377 783L219 933Q42 1100 42 1315Q42 1540 146.5 1658.0Q251 1776 449 1776Q691 1776 792.5 1647.0Q894 1518 894 1255H536V1376Q536 1412 515.5 1432.0Q495 1452 460 1452Q418 1452 398.5 1428.5Q379 1405 379 1368Q379 1331 399.0 1288.0Q419 1245 478 1189L681 994Q742 936 793.0 871.5Q844 807 875.0 721.5Q906 636 906 513Q906 265 814.5 124.5Q723 -16 496 -16Z"/><path transform="translate(-772.42,0) scale(0.126953,-0.126953)" d="M78 0V1760H428V1131H594V1760H944V0H594V798H428V0Z"/><path transform="translate(-637.47,0) scale(0.126953,-0.126953)" d="M62 0V1760H402V0Z"/><path transform="translate(-573.36,0) scale(0.126953,-0.126953)" d="M78 0V1760H782V1417H432V1137H764V798H432V0Z"/><path transform="translate(-464.44,0) scale(0.126953,-0.126953)" d="M229 0V1422H20V1760H790V1422H581V0Z"/><path transform="translate(-290.27,0) scale(0.126953,-0.126953)" d="M216 0 27 1760H371L468 649L567 1760H895L989 649L1083 1760H1431L1239 0H817L729 847L645 0Z"/><path transform="translate(-99.98,0) scale(0.126953,-0.126953)" d="M498 -16Q287 -16 175.5 111.5Q64 239 64 480V1316Q64 1542 174.5 1659.0Q285 1776 498 1776Q711 1776 821.5 1659.0Q932 1542 932 1316V480Q932 239 820.5 111.5Q709 -16 498 -16ZM501 308Q581 308 581 463V1322Q581 1452 503 1452Q415 1452 415 1319V461Q415 379 435.0 343.5Q455 308 501 308Z"/><path transform="translate(31.67,0) scale(0.126953,-0.126953)" d="M78 0V1760H618Q753 1760 822.0 1698.5Q891 1637 914.5 1526.5Q938 1416 938 1267Q938 1123 901.5 1037.0Q865 951 764 918Q847 901 880.5 835.5Q914 770 914 666V0H567V689Q567 766 535.5 784.5Q504 803 434 803V0ZM436 1108H521Q594 1108 594 1267Q594 1370 578.0 1402.0Q562 1434 518 1434H436Z"/><path transform="translate(160.78,0) scale(0.126953,-0.126953)" d="M78 0V1760H430V300H792V0Z"/><path transform="translate(269.32,0) scale(0.126953,-0.126953)" d="M78 0V1760H562Q752 1760 848.0 1654.5Q944 1549 944 1346V522Q944 272 856.5 136.0Q769 0 550 0ZM432 311H493Q590 311 590 405V1313Q590 1401 566.5 1426.5Q543 1452 471 1452H432Z"/><path transform="translate(402.74,0) scale(0.126953,-0.126953)" d="M216 0 27 1760H371L468 649L567 1760H895L989 649L1083 1760H1431L1239 0H817L729 847L645 0Z"/><path transform="translate(593.04,0) scale(0.126953,-0.126953)" d="M62 0V1760H402V0Z"/><path transform="translate(657.14,0) scale(0.126953,-0.126953)" d="M78 0V1760H562Q752 1760 848.0 1654.5Q944 1549 944 1346V522Q944 272 856.5 136.0Q769 0 550 0ZM432 311H493Q590 311 590 405V1313Q590 1401 566.5 1426.5Q543 1452 471 1452H432Z"/><path transform="translate(790.57,0) scale(0.126953,-0.126953)" d="M78 0V1760H782V1420H436V1077H768V746H436V343H805V0Z"/></g><g transform="translate(1950.00,910.00)" fill="#FFFFFF" ><path transform="translate(-933.68,0) scale(0.150000,-0.150000)" d="M41 700H341V600H151V415H302V315H151V100H341V0H41Z"/><path transform="translate(-826.73,0) scale(0.150000,-0.150000)" d="M41 700H198L268 199H270L340 700H497V0H393V530H391L311 0H219L139 530H137V0H41Z"/><path transform="translate(-693.53,0) scale(0.150000,-0.150000)" d="M41 700H203Q285 700 326.0 656.0Q367 612 367 527V458Q367 373 326.0 329.0Q285 285 203 285H151V0H41ZM203 385Q230 385 243.5 400.0Q257 415 257 451V534Q257 570 243.5 585.0Q230 600 203 600H151V385Z"/><path transform="translate(-583.13,0) scale(0.150000,-0.150000)" d="M41 700H151V100H332V0H41Z"/><path transform="translate(-479.63,0) scale(0.150000,-0.150000)" d="M33 166V534Q33 618 76.0 664.0Q119 710 200 710Q281 710 324.0 664.0Q367 618 367 534V166Q367 82 324.0 36.0Q281 -10 200 -10Q119 -10 76.0 36.0Q33 82 33 166ZM257 159V541Q257 610 200 610Q143 610 143 541V159Q143 90 200 90Q257 90 257 159Z"/><path transform="translate(-369.83,0) scale(0.150000,-0.150000)" d="M142 298 9 700H126L201 443H203L278 700H385L252 298V0H142Z"/><path transform="translate(-258.23,0) scale(0.150000,-0.150000)" d="M41 700H341V600H151V415H302V315H151V100H341V0H41Z"/><path transform="translate(-151.28,0) scale(0.150000,-0.150000)" d="M41 700H341V600H151V415H302V315H151V100H341V0H41Z"/><path transform="translate(32.17,0) scale(0.150000,-0.150000)" d="M127 600H12V700H352V600H237V0H127Z"/><path transform="translate(139.27,0) scale(0.150000,-0.150000)" d="M41 700H151V0H41Z"/><path transform="translate(220.57,0) scale(0.150000,-0.150000)" d="M41 700H198L268 199H270L340 700H497V0H393V530H391L311 0H219L139 530H137V0H41Z"/><path transform="translate(353.77,0) scale(0.150000,-0.150000)" d="M41 700H341V600H151V415H302V315H151V100H341V0H41Z"/><path transform="translate(537.22,0) scale(0.150000,-0.150000)" d="M34 162V538Q34 620 75.5 665.0Q117 710 196 710Q275 710 316.5 665.0Q358 620 358 538V464H254V545Q254 610 199 610Q144 610 144 545V154Q144 90 199 90Q254 90 254 154V261H358V162Q358 80 316.5 35.0Q275 -10 196 -10Q117 -10 75.5 35.0Q34 80 34 162Z"/><path transform="translate(647.17,0) scale(0.150000,-0.150000)" d="M126 700H275L389 0H279L259 139V137H134L114 0H12ZM246 232 197 578H195L147 232Z"/><path transform="translate(759.82,0) scale(0.150000,-0.150000)" d="M41 700H204Q289 700 328.0 660.5Q367 621 367 539V496Q367 387 295 358V356Q335 344 351.5 307.0Q368 270 368 208V85Q368 55 370.0 36.5Q372 18 380 0H268Q262 17 260.0 32.0Q258 47 258 86V214Q258 262 242.5 281.0Q227 300 189 300H151V0H41ZM191 400Q224 400 240.5 417.0Q257 434 257 474V528Q257 566 243.5 583.0Q230 600 201 600H151V400Z"/><path transform="translate(872.77,0) scale(0.150000,-0.150000)" d="M41 700H209Q291 700 332.0 656.0Q373 612 373 527V173Q373 88 332.0 44.0Q291 0 209 0H41ZM207 100Q234 100 248.5 116.0Q263 132 263 168V532Q263 568 248.5 584.0Q234 600 207 600H151V100Z"/></g><line x1="450.0" y1="990.0" x2="3450.0" y2="990.0" stroke="#FFFFFF" stroke-width="22" stroke-linecap="square"/><g transform="translate(570.00,1150.00)" fill="#FFFFFF" ><path transform="translate(0.00,0) scale(0.120000,-0.120000)" d="M41 700H341V600H151V415H302V315H151V100H341V0H41Z"/><path transform="translate(61.56,0) scale(0.120000,-0.120000)" d="M41 700H198L268 199H270L340 700H497V0H393V530H391L311 0H219L139 530H137V0H41Z"/><path transform="translate(144.12,0) scale(0.120000,-0.120000)" d="M41 700H203Q285 700 326.0 656.0Q367 612 367 527V458Q367 373 326.0 329.0Q285 285 203 285H151V0H41ZM203 385Q230 385 243.5 400.0Q257 415 257 451V534Q257 570 243.5 585.0Q230 600 203 600H151V385Z"/><path transform="translate(208.44,0) scale(0.120000,-0.120000)" d="M41 700H151V100H332V0H41Z"/><path transform="translate(267.24,0) scale(0.120000,-0.120000)" d="M33 166V534Q33 618 76.0 664.0Q119 710 200 710Q281 710 324.0 664.0Q367 618 367 534V166Q367 82 324.0 36.0Q281 -10 200 -10Q119 -10 76.0 36.0Q33 82 33 166ZM257 159V541Q257 610 200 610Q143 610 143 541V159Q143 90 200 90Q257 90 257 159Z"/><path transform="translate(331.08,0) scale(0.120000,-0.120000)" d="M142 298 9 700H126L201 443H203L278 700H385L252 298V0H142Z"/><path transform="translate(396.36,0) scale(0.120000,-0.120000)" d="M41 700H341V600H151V415H302V315H151V100H341V0H41Z"/><path transform="translate(457.92,0) scale(0.120000,-0.120000)" d="M41 700H341V600H151V415H302V315H151V100H341V0H41Z"/><path transform="translate(519.48,0) scale(0.120000,-0.120000)" d="M41 487H147V381H41ZM41 106H147V0H41Z"/></g><g transform="translate(1350.00,1158.00)" fill="#FFFFFF" ><path transform="translate(0.00,0) scale(0.073242,-0.073242)" d="M291 0V579L10 1760H359L457 1164L555 1760H903L623 579V0Z"/><path transform="translate(66.94,0) scale(0.073242,-0.073242)" d="M498 -16Q287 -16 175.5 111.5Q64 239 64 480V1316Q64 1542 174.5 1659.0Q285 1776 498 1776Q711 1776 821.5 1659.0Q932 1542 932 1316V480Q932 239 820.5 111.5Q709 -16 498 -16ZM501 308Q581 308 581 463V1322Q581 1452 503 1452Q415 1452 415 1319V461Q415 379 435.0 343.5Q455 308 501 308Z"/><path transform="translate(139.89,0) scale(0.073242,-0.073242)" d="M485 -16Q265 -16 161.0 107.5Q57 231 57 471V1760H399V485Q399 441 404.0 400.5Q409 360 427.0 334.0Q445 308 485 308Q526 308 544.0 333.5Q562 359 566.5 400.0Q571 441 571 485V1760H913V471Q913 231 809.0 107.5Q705 -16 485 -16Z"/></g><line x1="1330.0" y1="1190.0" x2="3330.0" y2="1190.0" stroke="#FFFFFF" stroke-width="8" stroke-linecap="square"/><g transform="translate(570.00,1360.00)" fill="#FFFFFF" ><path transform="translate(0.00,0) scale(0.120000,-0.120000)" d="M41 700H209Q291 700 332.0 656.0Q373 612 373 527V173Q373 88 332.0 44.0Q291 0 209 0H41ZM207 100Q234 100 248.5 116.0Q263 132 263 168V532Q263 568 248.5 584.0Q234 600 207 600H151V100Z"/><path transform="translate(66.72,0) scale(0.120000,-0.120000)" d="M41 700H341V600H151V415H302V315H151V100H341V0H41Z"/><path transform="translate(128.28,0) scale(0.120000,-0.120000)" d="M41 700H203Q285 700 326.0 656.0Q367 612 367 527V458Q367 373 326.0 329.0Q285 285 203 285H151V0H41ZM203 385Q230 385 243.5 400.0Q257 415 257 451V534Q257 570 243.5 585.0Q230 600 203 600H151V385Z"/><path transform="translate(192.84,0) scale(0.120000,-0.120000)" d="M127 600H12V700H352V600H237V0H127Z"/><path transform="translate(250.32,0) scale(0.120000,-0.120000)" d="M41 487H147V381H41ZM41 106H147V0H41Z"/></g><g transform="translate(1350.00,1368.00)" fill="#FFFFFF" ><path transform="translate(0.00,0) scale(0.073242,-0.073242)" d="M216 0 27 1760H371L468 649L567 1760H895L989 649L1083 1760H1431L1239 0H817L729 847L645 0Z"/><path transform="translate(106.79,0) scale(0.073242,-0.073242)" d="M78 0V1760H428V1131H594V1760H944V0H594V798H428V0Z"/><path transform="translate(181.64,0) scale(0.073242,-0.073242)" d="M30 0 200 1760H797L964 0H631L606 284H394L372 0ZM419 565H579L502 1460H486Z"/><path transform="translate(252.54,0) scale(0.073242,-0.073242)" d="M229 0V1422H20V1760H790V1422H581V0Z"/><path transform="translate(311.87,0) scale(0.073242,-0.073242)" d="M78 0V1760H782V1420H436V1077H768V746H436V343H805V0Z"/><path transform="translate(373.61,0) scale(0.073242,-0.073242)" d="M240 0 23 1761H358L487 563L602 1761H937L720 0Z"/><path transform="translate(443.99,0) scale(0.073242,-0.073242)" d="M78 0V1760H782V1420H436V1077H768V746H436V343H805V0Z"/><path transform="translate(505.74,0) scale(0.073242,-0.073242)" d="M78 0V1760H618Q753 1760 822.0 1698.5Q891 1637 914.5 1526.5Q938 1416 938 1267Q938 1123 901.5 1037.0Q865 951 764 918Q847 901 880.5 835.5Q914 770 914 666V0H567V689Q567 766 535.5 784.5Q504 803 434 803V0ZM436 1108H521Q594 1108 594 1267Q594 1370 578.0 1402.0Q562 1434 518 1434H436Z"/><path transform="translate(612.38,0) scale(0.073242,-0.073242)" d="M62 0V1760H402V0Z"/><path transform="translate(646.36,0) scale(0.073242,-0.073242)" d="M229 0V1422H20V1760H790V1422H581V0Z"/><path transform="translate(740.84,0) scale(0.073242,-0.073242)" d="M229 0V1422H20V1760H790V1422H581V0Z"/><path transform="translate(798.27,0) scale(0.073242,-0.073242)" d="M30 0 200 1760H797L964 0H631L606 284H394L372 0ZM419 565H579L502 1460H486Z"/><path transform="translate(871.07,0) scale(0.073242,-0.073242)" d="M78 0V1760H426V1055L590 1760H944L747 954L985 0H620L428 852V0Z"/><path transform="translate(941.89,0) scale(0.073242,-0.073242)" d="M78 0V1760H782V1420H436V1077H768V746H436V343H805V0Z"/><path transform="translate(1003.64,0) scale(0.073242,-0.073242)" d="M496 -16Q255 -16 148.5 104.0Q42 224 42 486V658H390V438Q390 377 408.5 342.5Q427 308 473 308Q521 308 539.5 336.0Q558 364 558 428Q558 509 542.0 563.5Q526 618 486.5 667.5Q447 717 377 783L219 933Q42 1100 42 1315Q42 1540 146.5 1658.0Q251 1776 449 1776Q691 1776 792.5 1647.0Q894 1518 894 1255H536V1376Q536 1412 515.5 1432.0Q495 1452 460 1452Q418 1452 398.5 1428.5Q379 1405 379 1368Q379 1331 399.0 1288.0Q419 1245 478 1189L681 994Q742 936 793.0 871.5Q844 807 875.0 721.5Q906 636 906 513Q906 265 814.5 124.5Q723 -16 496 -16Z"/></g><line x1="1330.0" y1="1400.0" x2="3330.0" y2="1400.0" stroke="#FFFFFF" stroke-width="8" stroke-linecap="square"/><g transform="translate(570.00,1570.00)" fill="#FFFFFF" ><path transform="translate(0.00,0) scale(0.120000,-0.120000)" d="M41 700H203Q285 700 326.0 656.0Q367 612 367 527V458Q367 373 326.0 329.0Q285 285 203 285H151V0H41ZM203 385Q230 385 243.5 400.0Q257 415 257 451V534Q257 570 243.5 585.0Q230 600 203 600H151V385Z"/><path transform="translate(60.12,0) scale(0.120000,-0.120000)" d="M126 700H275L389 0H279L259 139V137H134L114 0H12ZM246 232 197 578H195L147 232Z"/><path transform="translate(120.72,0) scale(0.120000,-0.120000)" d="M142 298 9 700H126L201 443H203L278 700H385L252 298V0H142Z"/><path transform="translate(223.20,0) scale(0.120000,-0.120000)" d="M41 700H204Q289 700 328.0 660.5Q367 621 367 539V496Q367 387 295 358V356Q335 344 351.5 307.0Q368 270 368 208V85Q368 55 370.0 36.5Q372 18 380 0H268Q262 17 260.0 32.0Q258 47 258 86V214Q258 262 242.5 281.0Q227 300 189 300H151V0H41ZM191 400Q224 400 240.5 417.0Q257 434 257 474V528Q257 566 243.5 583.0Q230 600 201 600H151V400Z"/><path transform="translate(289.56,0) scale(0.120000,-0.120000)" d="M126 700H275L389 0H279L259 139V137H134L114 0H12ZM246 232 197 578H195L147 232Z"/><path transform="translate(350.16,0) scale(0.120000,-0.120000)" d="M127 600H12V700H352V600H237V0H127Z"/><path transform="translate(411.84,0) scale(0.120000,-0.120000)" d="M41 700H341V600H151V415H302V315H151V100H341V0H41Z"/><path transform="translate(473.40,0) scale(0.120000,-0.120000)" d="M41 487H147V381H41ZM41 106H147V0H41Z"/></g><g transform="translate(1350.00,1578.00)" fill="#FFFFFF" ><path transform="translate(0.00,0) scale(0.073242,-0.073242)" d="M78 0V1760H440L602 917V1760H942V0H598L422 880V0Z"/><path transform="translate(74.71,0) scale(0.073242,-0.073242)" d="M29 0 439 1767H803L392 0Z"/><path transform="translate(135.50,0) scale(0.073242,-0.073242)" d="M30 0 200 1760H797L964 0H631L606 284H394L372 0ZM419 565H579L502 1460H486Z"/></g><line x1="1330.0" y1="1610.0" x2="3330.0" y2="1610.0" stroke="#FFFFFF" stroke-width="8" stroke-linecap="square"/><g transform="translate(570.00,1780.00)" fill="#FFFFFF" ><path transform="translate(0.00,0) scale(0.120000,-0.120000)" d="M22 166V206H126V158Q126 90 183 90Q211 90 225.5 106.5Q240 123 240 160Q240 204 220.0 237.5Q200 271 146 318Q78 378 51.0 426.5Q24 475 24 536Q24 619 66.0 664.5Q108 710 188 710Q267 710 307.5 664.5Q348 619 348 534V505H244V541Q244 577 230.0 593.5Q216 610 189 610Q134 610 134 543Q134 505 154.5 472.0Q175 439 229 392Q298 332 324.0 283.0Q350 234 350 168Q350 82 307.5 36.0Q265 -10 184 -10Q104 -10 63.0 35.5Q22 81 22 166Z"/><path transform="translate(62.64,0) scale(0.120000,-0.120000)" d="M37 166V700H147V158Q147 122 161.5 106.0Q176 90 203 90Q230 90 244.5 106.0Q259 122 259 158V700H365V166Q365 81 323.0 35.5Q281 -10 201 -10Q121 -10 79.0 35.5Q37 81 37 166Z"/><path transform="translate(128.88,0) scale(0.120000,-0.120000)" d="M41 700H203Q285 700 326.0 656.0Q367 612 367 527V458Q367 373 326.0 329.0Q285 285 203 285H151V0H41ZM203 385Q230 385 243.5 400.0Q257 415 257 451V534Q257 570 243.5 585.0Q230 600 203 600H151V385Z"/><path transform="translate(193.20,0) scale(0.120000,-0.120000)" d="M41 700H341V600H151V415H302V315H151V100H341V0H41Z"/><path transform="translate(254.76,0) scale(0.120000,-0.120000)" d="M41 700H204Q289 700 328.0 660.5Q367 621 367 539V496Q367 387 295 358V356Q335 344 351.5 307.0Q368 270 368 208V85Q368 55 370.0 36.5Q372 18 380 0H268Q262 17 260.0 32.0Q258 47 258 86V214Q258 262 242.5 281.0Q227 300 189 300H151V0H41ZM191 400Q224 400 240.5 417.0Q257 434 257 474V528Q257 566 243.5 583.0Q230 600 201 600H151V400Z"/><path transform="translate(320.64,0) scale(0.120000,-0.120000)" d="M12 700H123L195 157H197L269 700H370L264 0H118Z"/><path transform="translate(384.48,0) scale(0.120000,-0.120000)" d="M41 700H151V0H41Z"/><path transform="translate(425.52,0) scale(0.120000,-0.120000)" d="M22 166V206H126V158Q126 90 183 90Q211 90 225.5 106.5Q240 123 240 160Q240 204 220.0 237.5Q200 271 146 318Q78 378 51.0 426.5Q24 475 24 536Q24 619 66.0 664.5Q108 710 188 710Q267 710 307.5 664.5Q348 619 348 534V505H244V541Q244 577 230.0 593.5Q216 610 189 610Q134 610 134 543Q134 505 154.5 472.0Q175 439 229 392Q298 332 324.0 283.0Q350 234 350 168Q350 82 307.5 36.0Q265 -10 184 -10Q104 -10 63.0 35.5Q22 81 22 166Z"/><path transform="translate(488.16,0) scale(0.120000,-0.120000)" d="M33 166V534Q33 618 76.0 664.0Q119 710 200 710Q281 710 324.0 664.0Q367 618 367 534V166Q367 82 324.0 36.0Q281 -10 200 -10Q119 -10 76.0 36.0Q33 82 33 166ZM257 159V541Q257 610 200 610Q143 610 143 541V159Q143 90 200 90Q257 90 257 159Z"/><path transform="translate(554.16,0) scale(0.120000,-0.120000)" d="M41 700H204Q289 700 328.0 660.5Q367 621 367 539V496Q367 387 295 358V356Q335 344 351.5 307.0Q368 270 368 208V85Q368 55 370.0 36.5Q372 18 380 0H268Q262 17 260.0 32.0Q258 47 258 86V214Q258 262 242.5 281.0Q227 300 189 300H151V0H41ZM191 400Q224 400 240.5 417.0Q257 434 257 474V528Q257 566 243.5 583.0Q230 600 201 600H151V400Z"/><path transform="translate(621.12,0) scale(0.120000,-0.120000)" d="M41 487H147V381H41ZM41 106H147V0H41Z"/></g><g transform="translate(1350.00,1788.00)" fill="#FFFFFF" ><path transform="translate(0.00,0) scale(0.073242,-0.073242)" d="M78 0V1760H440L602 917V1760H942V0H598L422 880V0Z"/><path transform="translate(74.71,0) scale(0.073242,-0.073242)" d="M498 -16Q287 -16 175.5 111.5Q64 239 64 480V1316Q64 1542 174.5 1659.0Q285 1776 498 1776Q711 1776 821.5 1659.0Q932 1542 932 1316V480Q932 239 820.5 111.5Q709 -16 498 -16ZM501 308Q581 308 581 463V1322Q581 1452 503 1452Q415 1452 415 1319V461Q415 379 435.0 343.5Q455 308 501 308Z"/><path transform="translate(147.66,0) scale(0.073242,-0.073242)" d="M78 0V1760H440L602 917V1760H942V0H598L422 880V0Z"/><path transform="translate(222.36,0) scale(0.073242,-0.073242)" d="M78 0V1760H782V1420H436V1077H768V746H436V343H805V0Z"/></g><line x1="1330.0" y1="1820.0" x2="3330.0" y2="1820.0" stroke="#FFFFFF" stroke-width="8" stroke-linecap="square"/><line x1="450.0" y1="1930.0" x2="3450.0" y2="1930.0" stroke="#FFFFFF" stroke-width="22" stroke-linecap="square"/><g transform="translate(570.00,2090.00)" fill="#FFFFFF" ><path transform="translate(0.00,0) scale(0.120000,-0.120000)" d="M41 700H209Q291 700 332.0 656.0Q373 612 373 527V173Q373 88 332.0 44.0Q291 0 209 0H41ZM207 100Q234 100 248.5 116.0Q263 132 263 168V532Q263 568 248.5 584.0Q234 600 207 600H151V100Z"/><path transform="translate(72.48,0) scale(0.120000,-0.120000)" d="M126 700H275L389 0H279L259 139V137H134L114 0H12ZM246 232 197 578H195L147 232Z"/><path transform="translate(139.08,0) scale(0.120000,-0.120000)" d="M142 298 9 700H126L201 443H203L278 700H385L252 298V0H142Z"/></g><g transform="translate(1350.00,2090.00)" fill="#FFFFFF" ><path transform="translate(0.00,0) scale(0.120000,-0.120000)" d="M41 700H151V0H41Z"/><path transform="translate(47.04,0) scale(0.120000,-0.120000)" d="M41 700H179L286 281H288V700H386V0H273L141 511H139V0H41Z"/></g><g transform="translate(2150.00,2090.00)" fill="#FFFFFF" ><path transform="translate(0.00,0) scale(0.120000,-0.120000)" d="M33 166V534Q33 618 76.0 664.0Q119 710 200 710Q281 710 324.0 664.0Q367 618 367 534V166Q367 82 324.0 36.0Q281 -10 200 -10Q119 -10 76.0 36.0Q33 82 33 166ZM257 159V541Q257 610 200 610Q143 610 143 541V159Q143 90 200 90Q257 90 257 159Z"/><path transform="translate(72.00,0) scale(0.120000,-0.120000)" d="M37 166V700H147V158Q147 122 161.5 106.0Q176 90 203 90Q230 90 244.5 106.0Q259 122 259 158V700H365V166Q365 81 323.0 35.5Q281 -10 201 -10Q121 -10 79.0 35.5Q37 81 37 166Z"/><path transform="translate(144.24,0) scale(0.120000,-0.120000)" d="M127 600H12V700H352V600H237V0H127Z"/></g><g transform="translate(2950.00,2090.00)" fill="#FFFFFF" ><path transform="translate(0.00,0) scale(0.120000,-0.120000)" d="M41 700H151V415H269V700H379V0H269V315H151V0H41Z"/><path transform="translate(74.40,0) scale(0.120000,-0.120000)" d="M41 700H204Q289 700 328.0 660.5Q367 621 367 539V496Q367 387 295 358V356Q335 344 351.5 307.0Q368 270 368 208V85Q368 55 370.0 36.5Q372 18 380 0H268Q262 17 260.0 32.0Q258 47 258 86V214Q258 262 242.5 281.0Q227 300 189 300H151V0H41ZM191 400Q224 400 240.5 417.0Q257 434 257 474V528Q257 566 243.5 583.0Q230 600 201 600H151V400Z"/><path transform="translate(146.76,0) scale(0.120000,-0.120000)" d="M22 166V206H126V158Q126 90 183 90Q211 90 225.5 106.5Q240 123 240 160Q240 204 220.0 237.5Q200 271 146 318Q78 378 51.0 426.5Q24 475 24 536Q24 619 66.0 664.5Q108 710 188 710Q267 710 307.5 664.5Q348 619 348 534V505H244V541Q244 577 230.0 593.5Q216 610 189 610Q134 610 134 543Q134 505 154.5 472.0Q175 439 229 392Q298 332 324.0 283.0Q350 234 350 168Q350 82 307.5 36.0Q265 -10 184 -10Q104 -10 63.0 35.5Q22 81 22 166Z"/></g><line x1="450.0" y1="2140.0" x2="3450.0" y2="2140.0" stroke="#FFFFFF" stroke-width="12" stroke-linecap="square"/><g transform="translate(570.00,2390.00)" fill="#FFFFFF" ><path transform="translate(0.00,0) scale(0.063477,-0.063477)" d="M78 0V1760H614L762 687L909 1760H1450V0H1128V1268L926 0H610L396 1268V0Z"/><path transform="translate(96.99,0) scale(0.063477,-0.063477)" d="M498 -16Q287 -16 175.5 111.5Q64 239 64 480V1316Q64 1542 174.5 1659.0Q285 1776 498 1776Q711 1776 821.5 1659.0Q932 1542 932 1316V480Q932 239 820.5 111.5Q709 -16 498 -16ZM501 308Q581 308 581 463V1322Q581 1452 503 1452Q415 1452 415 1319V461Q415 379 435.0 343.5Q455 308 501 308Z"/><path transform="translate(160.21,0) scale(0.063477,-0.063477)" d="M78 0V1760H440L602 917V1760H942V0H598L422 880V0Z"/></g><g transform="translate(1350.00,2390.00)" fill="#FFFFFF" ><path transform="translate(0.00,0) scale(0.063477,-0.063477)" d="M243 0V1356Q207 1313 144.0 1286.5Q81 1260 25 1260V1541Q78 1549 139.0 1575.5Q200 1602 252.5 1648.5Q305 1695 333 1761H616V0Z"/><path transform="translate(42.97,0) scale(0.063477,-0.063477)" d="M243 0V1356Q207 1313 144.0 1286.5Q81 1260 25 1260V1541Q78 1549 139.0 1575.5Q200 1602 252.5 1648.5Q305 1695 333 1761H616V0Z"/><path transform="translate(85.95,0) scale(0.063477,-0.063477)" d="M68 976V1274H426V976ZM68 237V535H426V237Z"/><path transform="translate(117.37,0) scale(0.063477,-0.063477)" d="M506 -25Q303 -25 174.5 75.5Q46 176 46 384V646H412V495Q412 448 417.5 404.0Q423 360 443.0 332.0Q463 304 506 304Q563 304 581.0 342.5Q599 381 599 441V787Q599 830 593.5 872.0Q588 914 569.0 942.0Q550 970 508 970Q408 970 408 825H85V1761H924V1431H419V1183Q445 1215 489.5 1239.5Q534 1264 594 1264Q714 1264 789.5 1218.0Q865 1172 905.5 1090.0Q946 1008 961.5 900.0Q977 792 977 668Q977 509 960.5 381.5Q944 254 895.5 163.0Q847 72 753.5 23.5Q660 -25 506 -25Z"/><path transform="translate(181.61,0) scale(0.063477,-0.063477)" d="M503 -16Q392 -16 296.0 22.5Q200 61 141.0 138.0Q82 215 82 329V519H421V483Q421 439 425.5 395.0Q430 351 448.5 322.0Q467 293 509 293Q568 293 591.0 325.5Q614 358 614 419V772Q589 726 539.0 697.0Q489 668 417 668Q272 668 193.0 726.5Q114 785 84.0 901.0Q54 1017 54 1191Q54 1367 97.0 1498.5Q140 1630 240.5 1703.0Q341 1776 513 1776Q697 1776 800.0 1713.5Q903 1651 945.5 1525.5Q988 1400 988 1211V735Q988 552 972.5 412.0Q957 272 908.0 177.0Q859 82 762.0 33.0Q665 -16 503 -16ZM521 979Q614 979 614 1104V1322Q614 1452 526 1452Q464 1452 452.0 1399.5Q440 1347 440 1265V1123Q440 979 521 979Z"/><path transform="translate(276.31,0) scale(0.063477,-0.063477)" d="M78 0V1760H543Q689 1760 774.5 1695.0Q860 1630 897.0 1510.0Q934 1390 934 1224Q934 1064 903.0 945.5Q872 827 792.5 762.0Q713 697 567 697H424V0ZM424 1013H444Q542 1013 564.0 1068.0Q586 1123 586 1230Q586 1330 564.5 1384.5Q543 1439 463 1439H424Z"/><path transform="translate(337.70,0) scale(0.063477,-0.063477)" d="M78 0V1760H614L762 687L909 1760H1450V0H1128V1268L926 0H610L396 1268V0Z"/></g><g transform="translate(2210.00,2390.00)" fill="#FFFFFF" ><path transform="translate(0.00,0) scale(0.063477,-0.063477)" d="M60 509V741H1092V509Z"/></g><g transform="translate(2950.00,2390.00)" fill="#FFFFFF" ><path transform="translate(0.00,0) scale(0.063477,-0.063477)" d="M30 0 200 1760H797L964 0H631L606 284H394L372 0ZM419 565H579L502 1460H486Z"/><path transform="translate(63.10,0) scale(0.063477,-0.063477)" d="M78 0V1760H430V300H792V0Z"/><path transform="translate(114.77,0) scale(0.063477,-0.063477)" d="M78 0V1760H430V300H792V0Z"/></g><line x1="450.0" y1="2450.0" x2="3450.0" y2="2450.0" stroke="#FFFFFF" stroke-width="6" stroke-linecap="square"/><g transform="translate(570.00,2640.00)" fill="#FFFFFF" ><path transform="translate(0.00,0) scale(0.063477,-0.063477)" d="M229 0V1422H20V1760H790V1422H581V0Z"/><path transform="translate(51.42,0) scale(0.063477,-0.063477)" d="M485 -16Q265 -16 161.0 107.5Q57 231 57 471V1760H399V485Q399 441 404.0 400.5Q409 360 427.0 334.0Q445 308 485 308Q526 308 544.0 333.5Q562 359 566.5 400.0Q571 441 571 485V1760H913V471Q913 231 809.0 107.5Q705 -16 485 -16Z"/><path transform="translate(112.99,0) scale(0.063477,-0.063477)" d="M78 0V1760H782V1420H436V1077H768V746H436V343H805V0Z"/></g><g transform="translate(1350.00,2640.00)" fill="#FFFFFF" ><path transform="translate(0.00,0) scale(0.063477,-0.063477)" d="M243 0V1356Q207 1313 144.0 1286.5Q81 1260 25 1260V1541Q78 1549 139.0 1575.5Q200 1602 252.5 1648.5Q305 1695 333 1761H616V0Z"/><path transform="translate(42.97,0) scale(0.063477,-0.063477)" d="M243 0V1356Q207 1313 144.0 1286.5Q81 1260 25 1260V1541Q78 1549 139.0 1575.5Q200 1602 252.5 1648.5Q305 1695 333 1761H616V0Z"/><path transform="translate(85.95,0) scale(0.063477,-0.063477)" d="M68 976V1274H426V976ZM68 237V535H426V237Z"/><path transform="translate(117.37,0) scale(0.063477,-0.063477)" d="M506 -25Q303 -25 174.5 75.5Q46 176 46 384V646H412V495Q412 448 417.5 404.0Q423 360 443.0 332.0Q463 304 506 304Q563 304 581.0 342.5Q599 381 599 441V787Q599 830 593.5 872.0Q588 914 569.0 942.0Q550 970 508 970Q408 970 408 825H85V1761H924V1431H419V1183Q445 1215 489.5 1239.5Q534 1264 594 1264Q714 1264 789.5 1218.0Q865 1172 905.5 1090.0Q946 1008 961.5 900.0Q977 792 977 668Q977 509 960.5 381.5Q944 254 895.5 163.0Q847 72 753.5 23.5Q660 -25 506 -25Z"/><path transform="translate(181.61,0) scale(0.063477,-0.063477)" d="M503 -16Q392 -16 296.0 22.5Q200 61 141.0 138.0Q82 215 82 329V519H421V483Q421 439 425.5 395.0Q430 351 448.5 322.0Q467 293 509 293Q568 293 591.0 325.5Q614 358 614 419V772Q589 726 539.0 697.0Q489 668 417 668Q272 668 193.0 726.5Q114 785 84.0 901.0Q54 1017 54 1191Q54 1367 97.0 1498.5Q140 1630 240.5 1703.0Q341 1776 513 1776Q697 1776 800.0 1713.5Q903 1651 945.5 1525.5Q988 1400 988 1211V735Q988 552 972.5 412.0Q957 272 908.0 177.0Q859 82 762.0 33.0Q665 -16 503 -16ZM521 979Q614 979 614 1104V1322Q614 1452 526 1452Q464 1452 452.0 1399.5Q440 1347 440 1265V1123Q440 979 521 979Z"/><path transform="translate(276.31,0) scale(0.063477,-0.063477)" d="M78 0V1760H543Q689 1760 774.5 1695.0Q860 1630 897.0 1510.0Q934 1390 934 1224Q934 1064 903.0 945.5Q872 827 792.5 762.0Q713 697 567 697H424V0ZM424 1013H444Q542 1013 564.0 1068.0Q586 1123 586 1230Q586 1330 564.5 1384.5Q543 1439 463 1439H424Z"/><path transform="translate(337.70,0) scale(0.063477,-0.063477)" d="M78 0V1760H614L762 687L909 1760H1450V0H1128V1268L926 0H610L396 1268V0Z"/></g><g transform="translate(2210.00,2640.00)" fill="#FFFFFF" ><path transform="translate(0.00,0) scale(0.063477,-0.063477)" d="M60 509V741H1092V509Z"/></g><g transform="translate(2950.00,2640.00)" fill="#FFFFFF" ><path transform="translate(0.00,0) scale(0.063477,-0.063477)" d="M30 0 200 1760H797L964 0H631L606 284H394L372 0ZM419 565H579L502 1460H486Z"/><path transform="translate(63.10,0) scale(0.063477,-0.063477)" d="M78 0V1760H430V300H792V0Z"/><path transform="translate(114.77,0) scale(0.063477,-0.063477)" d="M78 0V1760H430V300H792V0Z"/></g><line x1="450.0" y1="2700.0" x2="3450.0" y2="2700.0" stroke="#FFFFFF" stroke-width="6" stroke-linecap="square"/><g transform="translate(2410.0,2630.0) rotate(-8)"><rect x="-167.1072265625" y="-128.24" width="334.214453125" height="139.216" rx="18" fill="none" stroke="#FF3B1F" stroke-width="18"/><rect x="-201.1072265625" y="-162.24" width="402.214453125" height="207.216" rx="26" fill="none" stroke="#FF3B1F" stroke-width="8"/><g transform="translate(0.00,0.00)" fill="#FF3B1F" ><path transform="translate(-127.91,0) scale(0.068359,-0.068359)" d="M78 0V1760H430V300H792V0Z"/><path transform="translate(-65.26,0) scale(0.068359,-0.068359)" d="M30 0 200 1760H797L964 0H631L606 284H394L372 0ZM419 565H579L502 1460H486Z"/><path transform="translate(7.91,0) scale(0.068359,-0.068359)" d="M229 0V1422H20V1760H790V1422H581V0Z"/><path transform="translate(70.28,0) scale(0.068359,-0.068359)" d="M78 0V1760H782V1420H436V1077H768V746H436V343H805V0Z"/></g></g><g transform="translate(570.00,2890.00)" fill="#FFFFFF" ><path transform="translate(0.00,0) scale(0.063477,-0.063477)" d="M216 0 27 1760H371L468 649L567 1760H895L989 649L1083 1760H1431L1239 0H817L729 847L645 0Z"/><path transform="translate(92.55,0) scale(0.063477,-0.063477)" d="M78 0V1760H782V1420H436V1077H768V746H436V343H805V0Z"/><path transform="translate(146.06,0) scale(0.063477,-0.063477)" d="M78 0V1760H562Q752 1760 848.0 1654.5Q944 1549 944 1346V522Q944 272 856.5 136.0Q769 0 550 0ZM432 311H493Q590 311 590 405V1313Q590 1401 566.5 1426.5Q543 1452 471 1452H432Z"/></g><g transform="translate(1350.00,2890.00)" fill="#FFFFFF" ><path transform="translate(0.00,0) scale(0.063477,-0.063477)" d="M243 0V1356Q207 1313 144.0 1286.5Q81 1260 25 1260V1541Q78 1549 139.0 1575.5Q200 1602 252.5 1648.5Q305 1695 333 1761H616V0Z"/><path transform="translate(42.97,0) scale(0.063477,-0.063477)" d="M243 0V1356Q207 1313 144.0 1286.5Q81 1260 25 1260V1541Q78 1549 139.0 1575.5Q200 1602 252.5 1648.5Q305 1695 333 1761H616V0Z"/><path transform="translate(85.95,0) scale(0.063477,-0.063477)" d="M68 976V1274H426V976ZM68 237V535H426V237Z"/><path transform="translate(117.37,0) scale(0.063477,-0.063477)" d="M506 -25Q303 -25 174.5 75.5Q46 176 46 384V646H412V495Q412 448 417.5 404.0Q423 360 443.0 332.0Q463 304 506 304Q563 304 581.0 342.5Q599 381 599 441V787Q599 830 593.5 872.0Q588 914 569.0 942.0Q550 970 508 970Q408 970 408 825H85V1761H924V1431H419V1183Q445 1215 489.5 1239.5Q534 1264 594 1264Q714 1264 789.5 1218.0Q865 1172 905.5 1090.0Q946 1008 961.5 900.0Q977 792 977 668Q977 509 960.5 381.5Q944 254 895.5 163.0Q847 72 753.5 23.5Q660 -25 506 -25Z"/><path transform="translate(181.61,0) scale(0.063477,-0.063477)" d="M503 -16Q392 -16 296.0 22.5Q200 61 141.0 138.0Q82 215 82 329V519H421V483Q421 439 425.5 395.0Q430 351 448.5 322.0Q467 293 509 293Q568 293 591.0 325.5Q614 358 614 419V772Q589 726 539.0 697.0Q489 668 417 668Q272 668 193.0 726.5Q114 785 84.0 901.0Q54 1017 54 1191Q54 1367 97.0 1498.5Q140 1630 240.5 1703.0Q341 1776 513 1776Q697 1776 800.0 1713.5Q903 1651 945.5 1525.5Q988 1400 988 1211V735Q988 552 972.5 412.0Q957 272 908.0 177.0Q859 82 762.0 33.0Q665 -16 503 -16ZM521 979Q614 979 614 1104V1322Q614 1452 526 1452Q464 1452 452.0 1399.5Q440 1347 440 1265V1123Q440 979 521 979Z"/><path transform="translate(276.31,0) scale(0.063477,-0.063477)" d="M78 0V1760H543Q689 1760 774.5 1695.0Q860 1630 897.0 1510.0Q934 1390 934 1224Q934 1064 903.0 945.5Q872 827 792.5 762.0Q713 697 567 697H424V0ZM424 1013H444Q542 1013 564.0 1068.0Q586 1123 586 1230Q586 1330 564.5 1384.5Q543 1439 463 1439H424Z"/><path transform="translate(337.70,0) scale(0.063477,-0.063477)" d="M78 0V1760H614L762 687L909 1760H1450V0H1128V1268L926 0H610L396 1268V0Z"/></g><g transform="translate(2210.00,2890.00)" fill="#FFFFFF" ><path transform="translate(0.00,0) scale(0.063477,-0.063477)" d="M60 509V741H1092V509Z"/></g><g transform="translate(2950.00,2890.00)" fill="#FFFFFF" ><path transform="translate(0.00,0) scale(0.063477,-0.063477)" d="M30 0 200 1760H797L964 0H631L606 284H394L372 0ZM419 565H579L502 1460H486Z"/><path transform="translate(63.10,0) scale(0.063477,-0.063477)" d="M78 0V1760H430V300H792V0Z"/><path transform="translate(114.77,0) scale(0.063477,-0.063477)" d="M78 0V1760H430V300H792V0Z"/></g><line x1="450.0" y1="2950.0" x2="3450.0" y2="2950.0" stroke="#FFFFFF" stroke-width="6" stroke-linecap="square"/><g transform="translate(570.00,3140.00)" fill="#FFFFFF" ><path transform="translate(0.00,0) scale(0.063477,-0.063477)" d="M229 0V1422H20V1760H790V1422H581V0Z"/><path transform="translate(51.42,0) scale(0.063477,-0.063477)" d="M78 0V1760H428V1131H594V1760H944V0H594V798H428V0Z"/><path transform="translate(116.29,0) scale(0.063477,-0.063477)" d="M485 -16Q265 -16 161.0 107.5Q57 231 57 471V1760H399V485Q399 441 404.0 400.5Q409 360 427.0 334.0Q445 308 485 308Q526 308 544.0 333.5Q562 359 566.5 400.0Q571 441 571 485V1760H913V471Q913 231 809.0 107.5Q705 -16 485 -16Z"/></g><g transform="translate(1350.00,3140.00)" fill="#FFFFFF" ><path transform="translate(0.00,0) scale(0.063477,-0.063477)" d="M243 0V1356Q207 1313 144.0 1286.5Q81 1260 25 1260V1541Q78 1549 139.0 1575.5Q200 1602 252.5 1648.5Q305 1695 333 1761H616V0Z"/><path transform="translate(42.97,0) scale(0.063477,-0.063477)" d="M243 0V1356Q207 1313 144.0 1286.5Q81 1260 25 1260V1541Q78 1549 139.0 1575.5Q200 1602 252.5 1648.5Q305 1695 333 1761H616V0Z"/><path transform="translate(85.95,0) scale(0.063477,-0.063477)" d="M68 976V1274H426V976ZM68 237V535H426V237Z"/><path transform="translate(117.37,0) scale(0.063477,-0.063477)" d="M506 -25Q303 -25 174.5 75.5Q46 176 46 384V646H412V495Q412 448 417.5 404.0Q423 360 443.0 332.0Q463 304 506 304Q563 304 581.0 342.5Q599 381 599 441V787Q599 830 593.5 872.0Q588 914 569.0 942.0Q550 970 508 970Q408 970 408 825H85V1761H924V1431H419V1183Q445 1215 489.5 1239.5Q534 1264 594 1264Q714 1264 789.5 1218.0Q865 1172 905.5 1090.0Q946 1008 961.5 900.0Q977 792 977 668Q977 509 960.5 381.5Q944 254 895.5 163.0Q847 72 753.5 23.5Q660 -25 506 -25Z"/><path transform="translate(181.61,0) scale(0.063477,-0.063477)" d="M503 -16Q392 -16 296.0 22.5Q200 61 141.0 138.0Q82 215 82 329V519H421V483Q421 439 425.5 395.0Q430 351 448.5 322.0Q467 293 509 293Q568 293 591.0 325.5Q614 358 614 419V772Q589 726 539.0 697.0Q489 668 417 668Q272 668 193.0 726.5Q114 785 84.0 901.0Q54 1017 54 1191Q54 1367 97.0 1498.5Q140 1630 240.5 1703.0Q341 1776 513 1776Q697 1776 800.0 1713.5Q903 1651 945.5 1525.5Q988 1400 988 1211V735Q988 552 972.5 412.0Q957 272 908.0 177.0Q859 82 762.0 33.0Q665 -16 503 -16ZM521 979Q614 979 614 1104V1322Q614 1452 526 1452Q464 1452 452.0 1399.5Q440 1347 440 1265V1123Q440 979 521 979Z"/><path transform="translate(276.31,0) scale(0.063477,-0.063477)" d="M78 0V1760H543Q689 1760 774.5 1695.0Q860 1630 897.0 1510.0Q934 1390 934 1224Q934 1064 903.0 945.5Q872 827 792.5 762.0Q713 697 567 697H424V0ZM424 1013H444Q542 1013 564.0 1068.0Q586 1123 586 1230Q586 1330 564.5 1384.5Q543 1439 463 1439H424Z"/><path transform="translate(337.70,0) scale(0.063477,-0.063477)" d="M78 0V1760H614L762 687L909 1760H1450V0H1128V1268L926 0H610L396 1268V0Z"/></g><g transform="translate(2210.00,3140.00)" fill="#FFFFFF" ><path transform="translate(0.00,0) scale(0.063477,-0.063477)" d="M60 509V741H1092V509Z"/></g><g transform="translate(2950.00,3140.00)" fill="#FFFFFF" ><path transform="translate(0.00,0) scale(0.063477,-0.063477)" d="M30 0 200 1760H797L964 0H631L606 284H394L372 0ZM419 565H579L502 1460H486Z"/><path transform="translate(63.10,0) scale(0.063477,-0.063477)" d="M78 0V1760H430V300H792V0Z"/><path transform="translate(114.77,0) scale(0.063477,-0.063477)" d="M78 0V1760H430V300H792V0Z"/></g><line x1="450.0" y1="3200.0" x2="3450.0" y2="3200.0" stroke="#FFFFFF" stroke-width="6" stroke-linecap="square"/><g transform="translate(570.00,3390.00)" fill="#FFFFFF" ><path transform="translate(0.00,0) scale(0.063477,-0.063477)" d="M78 0V1760H782V1417H432V1137H764V798H432V0Z"/><path transform="translate(51.86,0) scale(0.063477,-0.063477)" d="M78 0V1760H618Q753 1760 822.0 1698.5Q891 1637 914.5 1526.5Q938 1416 938 1267Q938 1123 901.5 1037.0Q865 951 764 918Q847 901 880.5 835.5Q914 770 914 666V0H567V689Q567 766 535.5 784.5Q504 803 434 803V0ZM436 1108H521Q594 1108 594 1267Q594 1370 578.0 1402.0Q562 1434 518 1434H436Z"/><path transform="translate(113.81,0) scale(0.063477,-0.063477)" d="M62 0V1760H402V0Z"/></g><g transform="translate(1350.00,3390.00)" fill="#FFFFFF" ><path transform="translate(0.00,0) scale(0.063477,-0.063477)" d="M243 0V1356Q207 1313 144.0 1286.5Q81 1260 25 1260V1541Q78 1549 139.0 1575.5Q200 1602 252.5 1648.5Q305 1695 333 1761H616V0Z"/><path transform="translate(42.97,0) scale(0.063477,-0.063477)" d="M243 0V1356Q207 1313 144.0 1286.5Q81 1260 25 1260V1541Q78 1549 139.0 1575.5Q200 1602 252.5 1648.5Q305 1695 333 1761H616V0Z"/><path transform="translate(85.95,0) scale(0.063477,-0.063477)" d="M68 976V1274H426V976ZM68 237V535H426V237Z"/><path transform="translate(117.37,0) scale(0.063477,-0.063477)" d="M506 -25Q303 -25 174.5 75.5Q46 176 46 384V646H412V495Q412 448 417.5 404.0Q423 360 443.0 332.0Q463 304 506 304Q563 304 581.0 342.5Q599 381 599 441V787Q599 830 593.5 872.0Q588 914 569.0 942.0Q550 970 508 970Q408 970 408 825H85V1761H924V1431H419V1183Q445 1215 489.5 1239.5Q534 1264 594 1264Q714 1264 789.5 1218.0Q865 1172 905.5 1090.0Q946 1008 961.5 900.0Q977 792 977 668Q977 509 960.5 381.5Q944 254 895.5 163.0Q847 72 753.5 23.5Q660 -25 506 -25Z"/><path transform="translate(181.61,0) scale(0.063477,-0.063477)" d="M503 -16Q392 -16 296.0 22.5Q200 61 141.0 138.0Q82 215 82 329V519H421V483Q421 439 425.5 395.0Q430 351 448.5 322.0Q467 293 509 293Q568 293 591.0 325.5Q614 358 614 419V772Q589 726 539.0 697.0Q489 668 417 668Q272 668 193.0 726.5Q114 785 84.0 901.0Q54 1017 54 1191Q54 1367 97.0 1498.5Q140 1630 240.5 1703.0Q341 1776 513 1776Q697 1776 800.0 1713.5Q903 1651 945.5 1525.5Q988 1400 988 1211V735Q988 552 972.5 412.0Q957 272 908.0 177.0Q859 82 762.0 33.0Q665 -16 503 -16ZM521 979Q614 979 614 1104V1322Q614 1452 526 1452Q464 1452 452.0 1399.5Q440 1347 440 1265V1123Q440 979 521 979Z"/><path transform="translate(276.31,0) scale(0.063477,-0.063477)" d="M78 0V1760H543Q689 1760 774.5 1695.0Q860 1630 897.0 1510.0Q934 1390 934 1224Q934 1064 903.0 945.5Q872 827 792.5 762.0Q713 697 567 697H424V0ZM424 1013H444Q542 1013 564.0 1068.0Q586 1123 586 1230Q586 1330 564.5 1384.5Q543 1439 463 1439H424Z"/><path transform="translate(337.70,0) scale(0.063477,-0.063477)" d="M78 0V1760H614L762 687L909 1760H1450V0H1128V1268L926 0H610L396 1268V0Z"/></g><g transform="translate(2210.00,3390.00)" fill="#FFFFFF" ><path transform="translate(0.00,0) scale(0.063477,-0.063477)" d="M60 509V741H1092V509Z"/></g><g transform="translate(2950.00,3390.00)" fill="#FFFFFF" ><path transform="translate(0.00,0) scale(0.063477,-0.063477)" d="M30 0 200 1760H797L964 0H631L606 284H394L372 0ZM419 565H579L502 1460H486Z"/><path transform="translate(63.10,0) scale(0.063477,-0.063477)" d="M78 0V1760H430V300H792V0Z"/><path transform="translate(114.77,0) scale(0.063477,-0.063477)" d="M78 0V1760H430V300H792V0Z"/></g><line x1="450.0" y1="3450.0" x2="3450.0" y2="3450.0" stroke="#FFFFFF" stroke-width="6" stroke-linecap="square"/><g transform="translate(570.00,3640.00)" fill="#FFFFFF" ><path transform="translate(0.00,0) scale(0.063477,-0.063477)" d="M496 -16Q255 -16 148.5 104.0Q42 224 42 486V658H390V438Q390 377 408.5 342.5Q427 308 473 308Q521 308 539.5 336.0Q558 364 558 428Q558 509 542.0 563.5Q526 618 486.5 667.5Q447 717 377 783L219 933Q42 1100 42 1315Q42 1540 146.5 1658.0Q251 1776 449 1776Q691 1776 792.5 1647.0Q894 1518 894 1255H536V1376Q536 1412 515.5 1432.0Q495 1452 460 1452Q418 1452 398.5 1428.5Q379 1405 379 1368Q379 1331 399.0 1288.0Q419 1245 478 1189L681 994Q742 936 793.0 871.5Q844 807 875.0 721.5Q906 636 906 513Q906 265 814.5 124.5Q723 -16 496 -16Z"/><path transform="translate(59.99,0) scale(0.063477,-0.063477)" d="M30 0 200 1760H797L964 0H631L606 284H394L372 0ZM419 565H579L502 1460H486Z"/><path transform="translate(121.43,0) scale(0.063477,-0.063477)" d="M229 0V1422H20V1760H790V1422H581V0Z"/></g><g transform="translate(1350.00,3640.00)" fill="#FFFFFF" ><path transform="translate(0.00,0) scale(0.063477,-0.063477)" d="M243 0V1356Q207 1313 144.0 1286.5Q81 1260 25 1260V1541Q78 1549 139.0 1575.5Q200 1602 252.5 1648.5Q305 1695 333 1761H616V0Z"/><path transform="translate(42.97,0) scale(0.063477,-0.063477)" d="M243 0V1356Q207 1313 144.0 1286.5Q81 1260 25 1260V1541Q78 1549 139.0 1575.5Q200 1602 252.5 1648.5Q305 1695 333 1761H616V0Z"/><path transform="translate(85.95,0) scale(0.063477,-0.063477)" d="M68 976V1274H426V976ZM68 237V535H426V237Z"/><path transform="translate(117.37,0) scale(0.063477,-0.063477)" d="M506 -25Q303 -25 174.5 75.5Q46 176 46 384V646H412V495Q412 448 417.5 404.0Q423 360 443.0 332.0Q463 304 506 304Q563 304 581.0 342.5Q599 381 599 441V787Q599 830 593.5 872.0Q588 914 569.0 942.0Q550 970 508 970Q408 970 408 825H85V1761H924V1431H419V1183Q445 1215 489.5 1239.5Q534 1264 594 1264Q714 1264 789.5 1218.0Q865 1172 905.5 1090.0Q946 1008 961.5 900.0Q977 792 977 668Q977 509 960.5 381.5Q944 254 895.5 163.0Q847 72 753.5 23.5Q660 -25 506 -25Z"/><path transform="translate(181.61,0) scale(0.063477,-0.063477)" d="M503 -16Q392 -16 296.0 22.5Q200 61 141.0 138.0Q82 215 82 329V519H421V483Q421 439 425.5 395.0Q430 351 448.5 322.0Q467 293 509 293Q568 293 591.0 325.5Q614 358 614 419V772Q589 726 539.0 697.0Q489 668 417 668Q272 668 193.0 726.5Q114 785 84.0 901.0Q54 1017 54 1191Q54 1367 97.0 1498.5Q140 1630 240.5 1703.0Q341 1776 513 1776Q697 1776 800.0 1713.5Q903 1651 945.5 1525.5Q988 1400 988 1211V735Q988 552 972.5 412.0Q957 272 908.0 177.0Q859 82 762.0 33.0Q665 -16 503 -16ZM521 979Q614 979 614 1104V1322Q614 1452 526 1452Q464 1452 452.0 1399.5Q440 1347 440 1265V1123Q440 979 521 979Z"/><path transform="translate(276.31,0) scale(0.063477,-0.063477)" d="M78 0V1760H543Q689 1760 774.5 1695.0Q860 1630 897.0 1510.0Q934 1390 934 1224Q934 1064 903.0 945.5Q872 827 792.5 762.0Q713 697 567 697H424V0ZM424 1013H444Q542 1013 564.0 1068.0Q586 1123 586 1230Q586 1330 564.5 1384.5Q543 1439 463 1439H424Z"/><path transform="translate(337.70,0) scale(0.063477,-0.063477)" d="M78 0V1760H614L762 687L909 1760H1450V0H1128V1268L926 0H610L396 1268V0Z"/></g><g transform="translate(2210.00,3640.00)" fill="#FFFFFF" ><path transform="translate(0.00,0) scale(0.063477,-0.063477)" d="M60 509V741H1092V509Z"/></g><g transform="translate(2950.00,3640.00)" fill="#FFFFFF" ><path transform="translate(0.00,0) scale(0.063477,-0.063477)" d="M30 0 200 1760H797L964 0H631L606 284H394L372 0ZM419 565H579L502 1460H486Z"/><path transform="translate(63.10,0) scale(0.063477,-0.063477)" d="M78 0V1760H430V300H792V0Z"/><path transform="translate(114.77,0) scale(0.063477,-0.063477)" d="M78 0V1760H430V300H792V0Z"/></g><line x1="450.0" y1="3700.0" x2="3450.0" y2="3700.0" stroke="#FFFFFF" stroke-width="6" stroke-linecap="square"/><g transform="translate(2410.0,3630.0) rotate(6)"><rect x="-167.1072265625" y="-128.24" width="334.214453125" height="139.216" rx="18" fill="none" stroke="#FF3B1F" stroke-width="18"/><rect x="-201.1072265625" y="-162.24" width="402.214453125" height="207.216" rx="26" fill="none" stroke="#FF3B1F" stroke-width="8"/><g transform="translate(0.00,0.00)" fill="#FF3B1F" ><path transform="translate(-127.91,0) scale(0.068359,-0.068359)" d="M78 0V1760H430V300H792V0Z"/><path transform="translate(-65.26,0) scale(0.068359,-0.068359)" d="M30 0 200 1760H797L964 0H631L606 284H394L372 0ZM419 565H579L502 1460H486Z"/><path transform="translate(7.91,0) scale(0.068359,-0.068359)" d="M229 0V1422H20V1760H790V1422H581V0Z"/><path transform="translate(70.28,0) scale(0.068359,-0.068359)" d="M78 0V1760H782V1420H436V1077H768V746H436V343H805V0Z"/></g></g><g transform="translate(570.00,3890.00)" fill="#FFFFFF" ><path transform="translate(0.00,0) scale(0.063477,-0.063477)" d="M496 -16Q255 -16 148.5 104.0Q42 224 42 486V658H390V438Q390 377 408.5 342.5Q427 308 473 308Q521 308 539.5 336.0Q558 364 558 428Q558 509 542.0 563.5Q526 618 486.5 667.5Q447 717 377 783L219 933Q42 1100 42 1315Q42 1540 146.5 1658.0Q251 1776 449 1776Q691 1776 792.5 1647.0Q894 1518 894 1255H536V1376Q536 1412 515.5 1432.0Q495 1452 460 1452Q418 1452 398.5 1428.5Q379 1405 379 1368Q379 1331 399.0 1288.0Q419 1245 478 1189L681 994Q742 936 793.0 871.5Q844 807 875.0 721.5Q906 636 906 513Q906 265 814.5 124.5Q723 -16 496 -16Z"/><path transform="translate(59.99,0) scale(0.063477,-0.063477)" d="M485 -16Q265 -16 161.0 107.5Q57 231 57 471V1760H399V485Q399 441 404.0 400.5Q409 360 427.0 334.0Q445 308 485 308Q526 308 544.0 333.5Q562 359 566.5 400.0Q571 441 571 485V1760H913V471Q913 231 809.0 107.5Q705 -16 485 -16Z"/><path transform="translate(121.56,0) scale(0.063477,-0.063477)" d="M78 0V1760H440L602 917V1760H942V0H598L422 880V0Z"/></g><g transform="translate(1350.00,3890.00)" fill="#FFFFFF" ><path transform="translate(0.00,0) scale(0.063477,-0.063477)" d="M243 0V1356Q207 1313 144.0 1286.5Q81 1260 25 1260V1541Q78 1549 139.0 1575.5Q200 1602 252.5 1648.5Q305 1695 333 1761H616V0Z"/><path transform="translate(42.97,0) scale(0.063477,-0.063477)" d="M243 0V1356Q207 1313 144.0 1286.5Q81 1260 25 1260V1541Q78 1549 139.0 1575.5Q200 1602 252.5 1648.5Q305 1695 333 1761H616V0Z"/><path transform="translate(85.95,0) scale(0.063477,-0.063477)" d="M68 976V1274H426V976ZM68 237V535H426V237Z"/><path transform="translate(117.37,0) scale(0.063477,-0.063477)" d="M506 -25Q303 -25 174.5 75.5Q46 176 46 384V646H412V495Q412 448 417.5 404.0Q423 360 443.0 332.0Q463 304 506 304Q563 304 581.0 342.5Q599 381 599 441V787Q599 830 593.5 872.0Q588 914 569.0 942.0Q550 970 508 970Q408 970 408 825H85V1761H924V1431H419V1183Q445 1215 489.5 1239.5Q534 1264 594 1264Q714 1264 789.5 1218.0Q865 1172 905.5 1090.0Q946 1008 961.5 900.0Q977 792 977 668Q977 509 960.5 381.5Q944 254 895.5 163.0Q847 72 753.5 23.5Q660 -25 506 -25Z"/><path transform="translate(181.61,0) scale(0.063477,-0.063477)" d="M503 -16Q392 -16 296.0 22.5Q200 61 141.0 138.0Q82 215 82 329V519H421V483Q421 439 425.5 395.0Q430 351 448.5 322.0Q467 293 509 293Q568 293 591.0 325.5Q614 358 614 419V772Q589 726 539.0 697.0Q489 668 417 668Q272 668 193.0 726.5Q114 785 84.0 901.0Q54 1017 54 1191Q54 1367 97.0 1498.5Q140 1630 240.5 1703.0Q341 1776 513 1776Q697 1776 800.0 1713.5Q903 1651 945.5 1525.5Q988 1400 988 1211V735Q988 552 972.5 412.0Q957 272 908.0 177.0Q859 82 762.0 33.0Q665 -16 503 -16ZM521 979Q614 979 614 1104V1322Q614 1452 526 1452Q464 1452 452.0 1399.5Q440 1347 440 1265V1123Q440 979 521 979Z"/><path transform="translate(276.31,0) scale(0.063477,-0.063477)" d="M78 0V1760H543Q689 1760 774.5 1695.0Q860 1630 897.0 1510.0Q934 1390 934 1224Q934 1064 903.0 945.5Q872 827 792.5 762.0Q713 697 567 697H424V0ZM424 1013H444Q542 1013 564.0 1068.0Q586 1123 586 1230Q586 1330 564.5 1384.5Q543 1439 463 1439H424Z"/><path transform="translate(337.70,0) scale(0.063477,-0.063477)" d="M78 0V1760H614L762 687L909 1760H1450V0H1128V1268L926 0H610L396 1268V0Z"/></g><g transform="translate(2210.00,3890.00)" fill="#FFFFFF" ><path transform="translate(0.00,0) scale(0.063477,-0.063477)" d="M60 509V741H1092V509Z"/></g><g transform="translate(2950.00,3890.00)" fill="#FFFFFF" ><path transform="translate(0.00,0) scale(0.063477,-0.063477)" d="M30 0 200 1760H797L964 0H631L606 284H394L372 0ZM419 565H579L502 1460H486Z"/><path transform="translate(63.10,0) scale(0.063477,-0.063477)" d="M78 0V1760H430V300H792V0Z"/><path transform="translate(114.77,0) scale(0.063477,-0.063477)" d="M78 0V1760H430V300H792V0Z"/></g><line x1="450.0" y1="3950.0" x2="3450.0" y2="3950.0" stroke="#FFFFFF" stroke-width="6" stroke-linecap="square"/><g transform="translate(570.00,4150.00)" fill="#FFFFFF" ><path transform="translate(0.00,0) scale(0.130000,-0.130000)" d="M127 600H12V700H352V600H237V0H127Z"/><path transform="translate(72.80,0) scale(0.130000,-0.130000)" d="M33 166V534Q33 618 76.0 664.0Q119 710 200 710Q281 710 324.0 664.0Q367 618 367 534V166Q367 82 324.0 36.0Q281 -10 200 -10Q119 -10 76.0 36.0Q33 82 33 166ZM257 159V541Q257 610 200 610Q143 610 143 541V159Q143 90 200 90Q257 90 257 159Z"/><path transform="translate(150.28,0) scale(0.130000,-0.130000)" d="M127 600H12V700H352V600H237V0H127Z"/><path transform="translate(217.62,0) scale(0.130000,-0.130000)" d="M126 700H275L389 0H279L259 139V137H134L114 0H12ZM246 232 197 578H195L147 232Z"/><path transform="translate(295.75,0) scale(0.130000,-0.130000)" d="M41 700H151V100H332V0H41Z"/><path transform="translate(413.27,0) scale(0.130000,-0.130000)" d="M41 700H151V415H269V700H379V0H269V315H151V0H41Z"/><path transform="translate(493.87,0) scale(0.130000,-0.130000)" d="M33 166V534Q33 618 76.0 664.0Q119 710 200 710Q281 710 324.0 664.0Q367 618 367 534V166Q367 82 324.0 36.0Q281 -10 200 -10Q119 -10 76.0 36.0Q33 82 33 166ZM257 159V541Q257 610 200 610Q143 610 143 541V159Q143 90 200 90Q257 90 257 159Z"/><path transform="translate(571.87,0) scale(0.130000,-0.130000)" d="M37 166V700H147V158Q147 122 161.5 106.0Q176 90 203 90Q230 90 244.5 106.0Q259 122 259 158V700H365V166Q365 81 323.0 35.5Q281 -10 201 -10Q121 -10 79.0 35.5Q37 81 37 166Z"/><path transform="translate(650.13,0) scale(0.130000,-0.130000)" d="M41 700H204Q289 700 328.0 660.5Q367 621 367 539V496Q367 387 295 358V356Q335 344 351.5 307.0Q368 270 368 208V85Q368 55 370.0 36.5Q372 18 380 0H268Q262 17 260.0 32.0Q258 47 258 86V214Q258 262 242.5 281.0Q227 300 189 300H151V0H41ZM191 400Q224 400 240.5 417.0Q257 434 257 474V528Q257 566 243.5 583.0Q230 600 201 600H151V400Z"/><path transform="translate(728.52,0) scale(0.130000,-0.130000)" d="M22 166V206H126V158Q126 90 183 90Q211 90 225.5 106.5Q240 123 240 160Q240 204 220.0 237.5Q200 271 146 318Q78 378 51.0 426.5Q24 475 24 536Q24 619 66.0 664.5Q108 710 188 710Q267 710 307.5 664.5Q348 619 348 534V505H244V541Q244 577 230.0 593.5Q216 610 189 610Q134 610 134 543Q134 505 154.5 472.0Q175 439 229 392Q298 332 324.0 283.0Q350 234 350 168Q350 82 307.5 36.0Q265 -10 184 -10Q104 -10 63.0 35.5Q22 81 22 166Z"/><path transform="translate(802.88,0) scale(0.130000,-0.130000)" d="M41 487H147V381H41ZM41 106H147V0H41Z"/></g><g transform="translate(1450.00,4160.00)" fill="#FFFFFF" ><path transform="translate(0.00,0) scale(0.083008,-0.083008)" d="M30 0 200 1760H797L964 0H631L606 284H394L372 0ZM419 565H579L502 1460H486Z"/><path transform="translate(82.51,0) scale(0.083008,-0.083008)" d="M78 0V1760H430V300H792V0Z"/><path transform="translate(150.08,0) scale(0.083008,-0.083008)" d="M78 0V1760H430V300H792V0Z"/><path transform="translate(257.49,0) scale(0.083008,-0.083008)" d="M498 -16Q287 -16 175.5 111.5Q64 239 64 480V1316Q64 1542 174.5 1659.0Q285 1776 498 1776Q711 1776 821.5 1659.0Q932 1542 932 1316V480Q932 239 820.5 111.5Q709 -16 498 -16ZM501 308Q581 308 581 463V1322Q581 1452 503 1452Q415 1452 415 1319V461Q415 379 435.0 343.5Q455 308 501 308Z"/><path transform="translate(340.17,0) scale(0.083008,-0.083008)" d="M78 0V1760H782V1417H432V1137H764V798H432V0Z"/><path transform="translate(447.83,0) scale(0.083008,-0.083008)" d="M229 0V1422H20V1760H790V1422H581V0Z"/><path transform="translate(515.06,0) scale(0.083008,-0.083008)" d="M78 0V1760H428V1131H594V1760H944V0H594V798H428V0Z"/><path transform="translate(599.90,0) scale(0.083008,-0.083008)" d="M78 0V1760H782V1420H436V1077H768V746H436V343H805V0Z"/><path transform="translate(669.87,0) scale(0.083008,-0.083008)" d="M78 0V1760H614L762 687L909 1760H1450V0H1128V1268L926 0H610L396 1268V0Z"/></g><g transform="translate(570.00,4410.00)" fill="#FFFFFF" ><path transform="translate(0.00,0) scale(0.130000,-0.130000)" d="M22 166V206H126V158Q126 90 183 90Q211 90 225.5 106.5Q240 123 240 160Q240 204 220.0 237.5Q200 271 146 318Q78 378 51.0 426.5Q24 475 24 536Q24 619 66.0 664.5Q108 710 188 710Q267 710 307.5 664.5Q348 619 348 534V505H244V541Q244 577 230.0 593.5Q216 610 189 610Q134 610 134 543Q134 505 154.5 472.0Q175 439 229 392Q298 332 324.0 283.0Q350 234 350 168Q350 82 307.5 36.0Q265 -10 184 -10Q104 -10 63.0 35.5Q22 81 22 166Z"/><path transform="translate(74.36,0) scale(0.130000,-0.130000)" d="M41 700H151V0H41Z"/><path transform="translate(125.32,0) scale(0.130000,-0.130000)" d="M33 166V534Q33 619 75.0 664.5Q117 710 197 710Q277 710 319.0 664.5Q361 619 361 534V474H257V541Q257 610 200 610Q143 610 143 541V158Q143 90 200 90Q257 90 257 158V295H202V395H361V166Q361 81 319.0 35.5Q277 -10 197 -10Q117 -10 75.0 35.5Q33 81 33 166Z"/><path transform="translate(202.15,0) scale(0.130000,-0.130000)" d="M41 700H179L286 281H288V700H386V0H273L141 511H139V0H41Z"/><path transform="translate(283.66,0) scale(0.130000,-0.130000)" d="M126 700H275L389 0H279L259 139V137H134L114 0H12ZM246 232 197 578H195L147 232Z"/><path transform="translate(355.81,0) scale(0.130000,-0.130000)" d="M127 600H12V700H352V600H237V0H127Z"/><path transform="translate(429.13,0) scale(0.130000,-0.130000)" d="M37 166V700H147V158Q147 122 161.5 106.0Q176 90 203 90Q230 90 244.5 106.0Q259 122 259 158V700H365V166Q365 81 323.0 35.5Q281 -10 201 -10Q121 -10 79.0 35.5Q37 81 37 166Z"/><path transform="translate(507.39,0) scale(0.130000,-0.130000)" d="M41 700H204Q289 700 328.0 660.5Q367 621 367 539V496Q367 387 295 358V356Q335 344 351.5 307.0Q368 270 368 208V85Q368 55 370.0 36.5Q372 18 380 0H268Q262 17 260.0 32.0Q258 47 258 86V214Q258 262 242.5 281.0Q227 300 189 300H151V0H41ZM191 400Q224 400 240.5 417.0Q257 434 257 474V528Q257 566 243.5 583.0Q230 600 201 600H151V400Z"/><path transform="translate(585.78,0) scale(0.130000,-0.130000)" d="M41 700H341V600H151V415H302V315H151V100H341V0H41Z"/><path transform="translate(658.97,0) scale(0.130000,-0.130000)" d="M41 487H147V381H41ZM41 106H147V0H41Z"/></g><line x1="1250.0" y1="4440.0" x2="3330.0" y2="4440.0" stroke="#FFFFFF" stroke-width="8" stroke-linecap="square"/><path transform="translate(1579.71,4298.25)" d="M61.75,4.94 L118.56,61.75 L87.69,61.75 L87.69,118.56 L35.81,118.56 L35.81,61.75 L4.94,61.75 Z" fill="#FFFFFF"/><g transform="translate(1726.61,4425.00)" fill="#FFFFFF" ><path transform="translate(0.00,0) scale(0.073864,-0.073864)" d="M496 -16Q255 -16 148.5 104.0Q42 224 42 486V658H390V438Q390 377 408.5 342.5Q427 308 473 308Q521 308 539.5 336.0Q558 364 558 428Q558 509 542.0 563.5Q526 618 486.5 667.5Q447 717 377 783L219 933Q42 1100 42 1315Q42 1540 146.5 1658.0Q251 1776 449 1776Q691 1776 792.5 1647.0Q894 1518 894 1255H536V1376Q536 1412 515.5 1432.0Q495 1452 460 1452Q418 1452 398.5 1428.5Q379 1405 379 1368Q379 1331 399.0 1288.0Q419 1245 478 1189L681 994Q742 936 793.0 871.5Q844 807 875.0 721.5Q906 636 906 513Q906 265 814.5 124.5Q723 -16 496 -16Z"/><path transform="translate(68.29,0) scale(0.073864,-0.073864)" d="M78 0V1760H428V1131H594V1760H944V0H594V798H428V0Z"/><path transform="translate(142.26,0) scale(0.073864,-0.073864)" d="M62 0V1760H402V0Z"/><path transform="translate(175.02,0) scale(0.073864,-0.073864)" d="M78 0V1760H782V1417H432V1137H764V798H432V0Z"/><path transform="translate(233.86,0) scale(0.073864,-0.073864)" d="M229 0V1422H20V1760H790V1422H581V0Z"/></g><g transform="translate(2470.0,3250.0) rotate(-9)"><rect x="-537.8091796875" y="-210.68" width="1075.618359375" height="228.712" rx="18" fill="none" stroke="#FF3B1F" stroke-width="18"/><rect x="-571.8091796875" y="-244.68" width="1143.618359375" height="296.712" rx="26" fill="none" stroke="#FF3B1F" stroke-width="8"/><g transform="translate(0.00,0.00)" fill="#FF3B1F" ><path transform="translate(-473.41,0) scale(0.112305,-0.112305)" d="M30 0 200 1760H797L964 0H631L606 284H394L372 0ZM419 565H579L502 1460H486Z"/><path transform="translate(-350.28,0) scale(0.112305,-0.112305)" d="M78 0V1760H543Q689 1760 774.5 1695.0Q860 1630 897.0 1510.0Q934 1390 934 1224Q934 1064 903.0 945.5Q872 827 792.5 762.0Q713 697 567 697H424V0ZM424 1013H444Q542 1013 564.0 1068.0Q586 1123 586 1230Q586 1330 564.5 1384.5Q543 1439 463 1439H424Z"/><path transform="translate(-230.18,0) scale(0.112305,-0.112305)" d="M78 0V1760H543Q689 1760 774.5 1695.0Q860 1630 897.0 1510.0Q934 1390 934 1224Q934 1064 903.0 945.5Q872 827 792.5 762.0Q713 697 567 697H424V0ZM424 1013H444Q542 1013 564.0 1068.0Q586 1123 586 1230Q586 1330 564.5 1384.5Q543 1439 463 1439H424Z"/><path transform="translate(-110.08,0) scale(0.112305,-0.112305)" d="M78 0V1760H618Q753 1760 822.0 1698.5Q891 1637 914.5 1526.5Q938 1416 938 1267Q938 1123 901.5 1037.0Q865 951 764 918Q847 901 880.5 835.5Q914 770 914 666V0H567V689Q567 766 535.5 784.5Q504 803 434 803V0ZM436 1108H521Q594 1108 594 1267Q594 1370 578.0 1402.0Q562 1434 518 1434H436Z"/><path transform="translate(11.03,0) scale(0.112305,-0.112305)" d="M498 -16Q287 -16 175.5 111.5Q64 239 64 480V1316Q64 1542 174.5 1659.0Q285 1776 498 1776Q711 1776 821.5 1659.0Q932 1542 932 1316V480Q932 239 820.5 111.5Q709 -16 498 -16ZM501 308Q581 308 581 463V1322Q581 1452 503 1452Q415 1452 415 1319V461Q415 379 435.0 343.5Q455 308 501 308Z"/><path transform="translate(134.38,0) scale(0.112305,-0.112305)" d="M240 0 23 1761H358L487 563L602 1761H937L720 0Z"/><path transform="translate(253.81,0) scale(0.112305,-0.112305)" d="M78 0V1760H782V1420H436V1077H768V746H436V343H805V0Z"/><path transform="translate(359.98,0) scale(0.112305,-0.112305)" d="M78 0V1760H562Q752 1760 848.0 1654.5Q944 1549 944 1346V522Q944 272 856.5 136.0Q769 0 550 0ZM432 311H493Q590 311 590 405V1313Q590 1401 566.5 1426.5Q543 1452 471 1452H432Z"/></g></g></g></g></svg>