<svg xmlns="http://www.w3.org/2000/svg" xmlns:xlink="http://www.w3.org/1999/xlink" width="1600" height="500" viewBox="0 0 1600 500"><defs></defs><path transform="translate(291.63,107.50)" d="M142.50,11.40 L273.60,142.50 L202.35,142.50 L202.35,273.60 L82.65,273.60 L82.65,142.50 L11.40,142.50 Z" fill="#0B0B0B"/><g transform="translate(630.63,400.00)" fill="#0B0B0B" ><path transform="translate(0.00,0) scale(0.170455,-0.170455)" d="M496 -16Q255 -16 148.5 104.0Q42 224 42 486V658H390V438Q390 377 408.5 342.5Q427 308 473 308Q521 308 539.5 336.0Q558 364 558 428Q558 509 542.0 563.5Q526 618 486.5 667.5Q447 717 377 783L219 933Q42 1100 42 1315Q42 1540 146.5 1658.0Q251 1776 449 1776Q691 1776 792.5 1647.0Q894 1518 894 1255H536V1376Q536 1412 515.5 1432.0Q495 1452 460 1452Q418 1452 398.5 1428.5Q379 1405 379 1368Q379 1331 399.0 1288.0Q419 1245 478 1189L681 994Q742 936 793.0 871.5Q844 807 875.0 721.5Q906 636 906 513Q906 265 814.5 124.5Q723 -16 496 -16Z"/><path transform="translate(157.59,0) scale(0.170455,-0.170455)" d="M78 0V1760H428V1131H594V1760H944V0H594V798H428V0Z"/><path transform="translate(328.30,0) scale(0.170455,-0.170455)" d="M62 0V1760H402V0Z"/><path transform="translate(403.90,0) scale(0.170455,-0.170455)" d="M78 0V1760H782V1417H432V1137H764V798H432V0Z"/><path transform="translate(539.67,0) scale(0.170455,-0.170455)" d="M229 0V1422H20V1760H790V1422H581V0Z"/></g></svg>